<svg id="visual" viewBox="0 0 540 960" width="540" height="960" xmlns="http://www.w3.org/2000/svg" xmlns:xlink="http://www.w3.org/1999/xlink" version="1.1"><rect x="0" y="0" width="540" height="960" fill="#edf7ff"></rect><path d="M0 541L18 529.7C36 518.3 72 495.7 108 504.5C144 513.3 180 553.7 216 559C252 564.3 288 534.7 324 520C360 505.3 396 505.7 432 520C468 534.3 504 562.7 522 576.8L540 591L540 961L522 961C504 961 468 961 432 961C396 961 360 961 324 961C288 961 252 961 216 961C180 961 144 961 108 961C72 961 36 961 18 961L0 961Z" fill="#e9daff"></path><path d="M0 671L18 655.8C36 640.7 72 610.3 108 596C144 581.7 180 583.3 216 580C252 576.7 288 568.3 324 567.8C360 567.3 396 574.7 432 575.8C468 577 504 572 522 569.5L540 567L540 961L522 961C504 961 468 961 432 961C396 961 360 961 324 961C288 961 252 961 216 961C180 961 144 961 108 961C72 961 36 961 18 961L0 961Z" fill="#bca6db"></path><path d="M0 628L18 635.7C36 643.3 72 658.7 108 667.5C144 676.3 180 678.7 216 689.7C252 700.7 288 720.3 324 710.3C360 700.3 396 660.7 432 657.8C468 655 504 689 522 706L540 723L540 961L522 961C504 961 468 961 432 961C396 961 360 961 324 961C288 961 252 961 216 961C180 961 144 961 108 961C72 961 36 961 18 961L0 961Z" fill="#9175b7"></path><path d="M0 816L18 807.2C36 798.3 72 780.7 108 767.8C144 755 180 747 216 747.5C252 748 288 757 324 766.3C360 775.7 396 785.3 432 782.8C468 780.3 504 765.7 522 758.3L540 751L540 961L522 961C504 961 468 961 432 961C396 961 360 961 324 961C288 961 252 961 216 961C180 961 144 961 108 961C72 961 36 961 18 961L0 961Z" fill="#674694"></path><path d="M0 866L18 860.3C36 854.7 72 843.3 108 834.8C144 826.3 180 820.7 216 829.5C252 838.3 288 861.7 324 869.8C360 878 396 871 432 869C468 867 504 870 522 871.5L540 873L540 961L522 961C504 961 468 961 432 961C396 961 360 961 324 961C288 961 252 961 216 961C180 961 144 961 108 961C72 961 36 961 18 961L0 961Z" fill="#3c1872"></path></svg>